<svg width="1024" height="1024" viewBox="0 0 1024 1024" fill="none" xmlns="http://www.w3.org/2000/svg">
<path fill-rule="evenodd" clip-rule="evenodd" d="M539.84 259H702.318C659.461 349.378 597.826 455.63 521.756 547.753C414.94 677.11 291.822 764.318 163.056 764.318V904.318C355.575 904.318 514.497 776.419 629.709 636.894C746.684 495.234 831.179 326.743 873.859 213.731L909.635 119H808.373H115V259H383.275C361.589 298.455 334.837 340.017 304.024 377.314C242.72 451.519 177.557 494.52 115 494.52V634.52C241.37 634.52 342.342 550.745 411.956 466.481C467.579 399.151 511.022 322.242 539.84 259Z" fill="#4886FF"/>
<path fill-rule="evenodd" clip-rule="evenodd" d="M539.84 259H702.318C659.461 349.378 597.826 455.63 521.756 547.753C414.94 677.11 291.822 764.318 163.056 764.318V904.318C355.575 904.318 514.497 776.419 629.709 636.894C746.684 495.234 831.179 326.743 873.859 213.731L909.635 119H808.373H115V259H383.275C361.589 298.455 334.837 340.017 304.024 377.314C242.72 451.519 177.557 494.52 115 494.52V634.52C241.37 634.52 342.342 550.745 411.956 466.481C467.579 399.151 511.022 322.242 539.84 259Z" fill="url(#paint0_linear_498_2)" fill-opacity="0.1"/>
<defs>
<linearGradient id="paint0_linear_498_2" x1="126.329" y1="945.156" x2="1480.86" y2="-499.284" gradientUnits="userSpaceOnUse">
<stop/>
<stop offset="1" stop-color="white" stop-opacity="0"/>
</linearGradient>
</defs>
</svg>
